<?xml version="1.0" encoding="utf-8"?>
<!-- Generator: Adobe Illustrator 18.1.1, SVG Export Plug-In . SVG Version: 6.00 Build 0)  -->
<svg version="1.1" id="Capa_1" xmlns="http://www.w3.org/2000/svg" xmlns:xlink="http://www.w3.org/1999/xlink" x="0px" y="0px"
	 viewBox="0 0 1024 768" enable-background="new 0 0 1024 768" xml:space="preserve">
<g>
	<path fill="#FFFFFF" d="M954.4,285.7c-0.1-1.9-0.3-3.5-0.4-5c-0.3-1.5-0.5-2.8-0.7-3.8c-0.4-2-0.7-3.1-0.7-3.1
		c-0.2-1-0.5-2.1-0.9-3c-4-10.3-15.6-15.3-25.8-11.3c-10.3,4-15.3,15.6-11.3,25.8l0.5,1.4c0,0,0.1,0.2,0.3,0.7
		c0.1,0.2,0.3,0.5,0.5,0.9c0.1,0.5,0.3,1.1,0.5,1.7c0.7,2.7,1.6,8,0.2,16.2c-1.2,8-4.2,18.8-10,30c-0.7,1.3-1.5,2.9-2.2,4.1
		c-0.7,1.2-1.3,2.4-2.5,4.1l-0.8,1.2l-0.2,0.3c0,0-0.4,0.5,0,0l-0.4,0.5c-0.6,0.7-1.1,1.4-1.7,2.1c-0.7,0.9-1.5,1.8-2.2,2.8
		c0.2-3.2,0.5-6.5,0.7-9.7c0.8-9.7,1.7-19.5,2.5-29.4c0.4-4.9,0.9-9.9,1.3-14.9c0.6-5,1.1-10.1,1.7-15.1c0.5-4.7,1-9.4,1.5-14
		c4.9-14.6,9-29.4,12.8-44.2c1.3-5.2,2.6-10.2,3.7-15.7c1.1-5.4,2.1-10.8,2.8-16.6c0.3-2.9,0.6-5.9,0.6-9.3c0-1.8-0.1-3.5-0.5-6.1
		c-0.3-1.3-0.5-2.8-1.6-5.3c-0.6-1.2-1.5-3-3.7-5.1c-2-2.2-7.5-4.6-11.6-3.9c-4.3,0.5-6.3,2-7.7,3c-1.4,1-2.2,1.9-2.9,2.6
		c-1.3,1.5-2,2.5-2.6,3.5c-1.2,2-2,3.6-2.7,5.1c-1.4,3.1-2.4,5.9-3.4,8.7c-1.8,5.5-3.3,10.9-4.5,16.2c-0.6,2.7-1.2,5.3-1.7,8l-0.8,4
		l-0.4,2.3l-0.3,1.9c-1.6,10.1-3.2,20.2-4.8,30.3c-1.6,10.1-3.2,20.1-4.8,30.1c-0.8,5-1.6,10-2.4,15c-0.3,2.4-0.6,4.7-1,7.1
		c-0.8,1.8-1.6,3.6-2.4,5.4c-4.2,9.1-9,17.8-14.5,25.7c-5.5,7.8-11.9,14.8-18.8,18.9c-0.9,0.6-1.6,0.9-2.3,1.3
		c-0.4,0.2-0.6,0.4-1.1,0.6l-1.9,0.7l-0.9,0.3c0,0,0,0-0.1,0l-1.5,0.3c-1,0.2-2.1,0.5-3.1,0.5c-4.1,0.5-7.8-0.5-9.4-2.3
		c-0.7-0.9-1.1-1.8-1.1-2.7l-0.1-0.6l0-0.8c0-0.4,0-1.1,0-1.6c0-2.3,0-5.5-0.1-9.2c-0.1-0.9,0-1.7,0-2.5l-0.2-3.4l-0.1-2l0-1.5
		l-0.1-3.5l-0.2-7.1c-0.1-2.3,0.1-4.9,0.2-7.3l0.3-7.4c0.1-2.5,0.1-5,0.4-7.3l1.2-14.4l0.1-1.8l0.3-2l0.5-3.9l1.1-7.9l1.1-7.9
		l0.4-2.6c0.3-0.8,0.6-1.6,1-2.4c2-5.1,4-10.1,5.8-15.3c1.9-5.2,3.6-10.4,5.2-15.8c1.6-5.5,3.1-10.9,4.2-17.4
		c0.3-1.7,0.5-3.4,0.6-5.7c0-0.6,0-1.3,0-1.9c0-0.9,0-1.5-0.2-2.8c-0.2-1.1-0.2-2.4-1.3-5.2c-0.1-0.8-4.3-11-16.8-11.6
		c-9.8,0.6-11.9,4.6-13.2,5.3c-1.6,1.6-2.1,2.3-2.8,3.1c-0.6,0.8-1,1.5-1.4,2c-0.4,0.6-0.7,1.1-1,1.6c-1.1,2-1.9,3.5-2.6,5.1
		c-2.7,6-4.6,11.3-6.4,16.7c-3.6,10.7-6.5,21.3-9,32l-0.9,4l-0.5,2l-0.2,1c-0.1,0.6,0,0-0.3,1.6l-1.5,7.8l-1.4,7.8l-0.7,3.9
		l-0.4,1.9l-0.3,2.1l-2,17.1c-0.2,1.1-0.3,2.3-0.3,3.4l-2.1,5.4l-2.9,7.3l-1.3,3.4l-1.5,3.5c-4,9.4-8.4,18.5-13,27.4
		c-4.7,8.8-9.8,17.4-15.5,24.9c-2.8,3.8-5.9,7.1-9,9.9c-3,2.8-6.4,4.5-8,4.6c-0.8,0.1-1.2,0.1-1.8-0.2c-0.6-0.3-1.5-0.9-2.4-2.1
		c-2-2.2-3.8-6.1-5.1-10.1c-1.3-4.1-2.4-8.6-3-13.1c-0.3-2.4-0.5-4.2-0.7-6.9c-0.2-2.2-0.2-4.8-0.3-7.2c-0.4-9.6,0.1-19.3,1-28.9
		c1.7-19.3,5.8-38.4,10.2-57.4c1.1-4.7,2.2-9.5,3.4-14.2c1-4.1,2.1-8.3,3.1-12.4c10.2-28.9,20.8-58.9,31.8-89.9
		c5.7-16.2,11.6-32.8,17.4-49.9c2.8-8.6,5.8-17.2,8.3-26.4c1.2-4.6,2.4-9.3,3.3-14.6c0.4-2.7,0.8-5.5,0.7-9.3
		c-0.1-1.1-0.1-2-0.3-3.4c-0.2-1.2-0.5-2.9-1.4-5.1c-0.7-1.4-0.9-2.2-2.4-4.2c-1.1-1.5-3.1-3.5-6.1-5.1c-2.5-1.4-6.9-2.2-9.1-1.9
		c-3,0.2-4.8,0.9-6.2,1.5c-1.9,0.8-2.3,1.2-3.5,1.8c-1.1,0.7-1.4,1-2.2,1.6c-0.7,0.6-1.1,0.9-1.6,1.4c-0.4,0.4-1,0.9-1.3,1.2
		c-0.7,0.7-1.4,1.5-2,2.1c-0.6,0.7-1.1,1.3-1.6,1.9c-2,2.5-3.5,4.8-5,7c-2.9,4.5-5.4,8.9-7.7,13.2c-4.6,8.8-8.6,17.6-12.3,26.6
		c-3.6,9-6.9,18.1-9.8,27.4c-1.5,4.6-2.9,9.3-4.2,13.9l-1,3.5l-0.5,1.8l-0.4,1.5l-0.2,0.9l-1.7,6.9c-2.1,9.3-4.3,18.6-6.4,28.1
		c-1.1,4.6-1.9,9.6-2.7,14.6c-0.8,4.9-1.6,9.9-2.4,14.9c-0.7,5-1.5,9.9-2.2,14.9c-0.7,4.8-1.4,9.6-2,14.5c-0.7,4.8-1.3,9.8-1.9,14.8
		c-0.6,4.9-1.2,9.9-1.7,15c-1.2,10-2,20.2-2.7,30.5c-0.3,5.1-0.6,10.3-0.8,15.5c0,2.4-0.1,4.8-0.1,7.2c-1.2,3.3-2.5,6.6-3.8,9.8
		c-5.3,13.4-10.6,26.5-15.8,39.2c-5.1,11.8-11.2,23.3-18.9,32.4c-3.8,4.5-8,8.5-12.3,11.6c-4.2,3.1-8.7,5.2-11.8,5.6
		c-1.4,0.1-2.5-0.1-2-0.6c0.4-0.5,2-0.3,2.8,0c0.9,0.5,0.9-0.1,0.9-0.8c0-1-0.2-2.4-0.1-4.1c0-6.8,1.7-16.7,3.7-24.5l0.2-0.8
		l0.3-0.9l0.5-1.8c0.3-1.2,0.7-2.4,1-3.6c0.7-2.2,1.3-4.3,2-6.4c1.4-4.5,2.8-8.8,4.1-13c5.4-16.9,10.2-31.9,14.7-44.5
		c4.6-12.5,8.8-22.7,11.9-29.6c3.7-8.1,5.3-8.1,12.5-12.1c5.6-3.1,7.6-10.2,4.4-15.7l0-0.1c0,0-0.4-0.6-1.1-1.8
		c-0.1-0.1-0.2-0.3-0.3-0.5c0-0.1-0.4-0.4-0.7-0.7c-0.7-0.6-1.6-1.3-2.6-1.9c-0.5-0.3-1-0.7-1.6-1c-0.5-0.3-1.1-0.5-1.6-0.8
		c-1.2-0.5-2.4-1.1-3.9-1.4c-1.4-0.3-3.1-0.6-4.7-0.7c-1.6,0-3.4,0-5.1,0.3c-1.6,0.3-3.4,0.7-4.9,1.2c-1.4,0.6-3.2,1.2-4.5,1.9
		c-5.8,2.9-10.5,6.9-14.9,11.4c-8.7,9-16,20.6-22.6,34.5c-6.7,13.9-13,30.1-18,48.7c-1.3,4.6-2.5,9.5-3.6,14.4
		c-0.3,1.2-0.6,2.5-0.8,3.8l-0.4,1.9l-0.3,1.4l-0.2,0.9c-0.2,1.2-0.4,2.5-0.7,3.7l-0.3,1.6c-1,1.8-2,3.7-3,5.5
		c-2.9,5.2-5.4,10.4-8,15.5l-3.9,7.7l-2,4c-0.5,1-1.1,2.2-1.8,3.3c-2.7,4.6-5.7,9.3-8.9,13.8c-3.2,4.5-6.6,8.8-10.1,12.9
		c-2.9,3.4-5.9,6.5-9,9.3c0,0,0-0.1,0-0.1l0.5-3.2c0.9-4.5,2-9.2,3.4-14.3c1.4-5,3-10.1,4.6-15.3c0.8-2.6,1.7-5.2,2.5-7.9
		c0.7-2.7,1.2-5.5,1.5-8.5c0.3-2.9,0.3-6,0-9.2c-0.1-1.6-0.4-3.3-0.8-5c-3.7-14.9-19.8-15.7-29.8-4.9c-2.1,2.3-3.9,4.6-5.5,7.2
		c-1.6,2.5-2.9,5.2-3.9,8c-1.1,2.8-1.9,5.7-2.8,8.6c-1.8,5.8-3.3,11.8-4.6,18c-1.3,6.2-2.2,12.8-2.6,19.8l0,3.9
		c-3.3,5.5-7,10.8-10.9,15.8c-4.9,6.1-10.2,11.9-15.9,16.4c-1.4,1-2.9,2.2-4.3,3.1l-2.2,1.3l-1.1,0.7c-0.3,0.2-0.6,0.2-0.9,0.4
		c-0.6,0.2-1.1,0.5-1.6,0.7c-0.1,0.1-0.2,0.1-0.4,0.2l-0.7,0.2l-1.5,0.4l-1.5,0.4l-0.7,0.2l-0.1,0c1.6-0.5,0.4-0.1,0.7-0.2l-0.1,0
		l-0.2,0c-0.6,0.1-1.3,0.2-1.9,0.2c-0.5-0.1-1,0-1.4-0.1c-0.1-0.1-0.3-0.1-0.4-0.1c-0.1,0-0.3,0-0.3-0.1c0-0.1-0.1-0.1,0.1-0.2
		c0.1,0.1,0.4,0,0.5,0.1c0.7,0.3,0-1.1,0-3.7c0-2.6,0.4-5.9,1-9.3c0.6-3.4,1.5-7,2.6-10.6c2.1-7.2,4.8-14.5,7.7-21.8
		c3-7.3,6-14.6,9.4-21.7c3.2-6.9,6.8-14.5,10.4-21.6c3.5-7.3,7.1-14.4,10.8-21.5c3.7-7,7.4-14,11.4-20.7c3.9-6.7,7.9-13.2,12.1-19.1
		c2.1-3,4.2-5.7,6.3-8.3c2.1-2.5,4.2-4.7,6-6.4c1.4-1.3,2.7-2.1,3.1-2.5c9.7,2.1,19.9-2.8,23.9-12.2c4.6-10.7-0.3-23.1-11-27.7
		l-0.1,0l-1.4-0.6l-0.7-0.3c-0.2-0.1-0.1-0.1-0.5-0.2l-1.1-0.4c-3-0.9-6.7-1.6-8.9-1.6c-1.2-0.1-2.5-0.1-3.7-0.1
		c-1.2,0.1-2.3,0.2-3.5,0.4c-2.4,0.3-4.4,0.9-6.4,1.5c-8,2.6-13.3,6.4-17.9,10c-9,7.4-14.9,15.1-20.4,22.7
		c-5.4,7.7-10,15.3-14.2,23.1c-4.2,7.8-8.1,15.6-11.6,23.4c-0.2,0.5-0.5,1.1-0.7,1.6c-0.8,0.8-1.6,1.8-2.1,3l0,0
		c0,0-0.2,0.5-0.7,1.5c-0.5,1-1.2,2.4-2.5,4.3c-2.4,3.6-6.5,8.9-13.3,14.5c-1.7,1.4-3.5,2.8-5.5,4.3c-2,1.4-4.1,2.8-6.4,4.2
		c-0.1,0.1-0.3,0.2-0.4,0.2c1.3-6.4,2.4-12.9,3.4-19.5c0.8-5.7,1.4-11.5,1.6-17.5c0.2-6,0.1-12.2-1-18.8c-1.2-6.6-3-13.8-8.7-21.3
		c-0.7-0.9-1.5-1.8-2.3-2.7l-1.3-1.3l-1-0.9l-0.7-0.7c-0.3-0.3-0.9-0.7-1.3-1.1l-1.4-1.1l-1.3-0.9c-3.5-2.4-7.7-4.5-12.3-5.7
		c-4.6-1.3-9.6-1.6-14.2-1.1c-4.7,0.5-8.9,1.7-12.8,3.4c-7.6,3.3-13.4,7.8-18.3,12.5c-4.9,4.7-8.8,9.7-12.2,14.8
		c-3.4,5.1-6.2,10.4-8.6,15.8c-4.8,10.7-7.5,22.1-7.6,33.6c-0.1,5.8,0.5,11.6,1.8,17.4c0.2,0.7,0.3,1.4,0.5,2.2l0.3,1.1l0.1,0.5
		c0,0,0.2,1.3,0.2,0.8l0.1,0.2l0.6,1.8c0.3,1.1,0.7,2.2,1.1,3.2c1.1,2.8,2.7,5.5,4.6,8l-1.8,0.1c-0.8,0.1-1.5,0.2-2.3,0.3l-1.1,0.2
		l-0.8,0.2c-4.2,1.1-7.6,3-10.1,5c-2.5,1.9-4.2,3.8-5.7,5.6c-2.8,3.5-4.3,6.5-5.7,9.3c-1.3,2.8-2.2,5.4-3,7.9
		c-1.5,5-2.6,9.8-3.2,14.6c-0.7,4.8-1.2,9.5-1.4,14.3c-0.2,4.8-0.2,9.7,0,14.6c0.2,4.9,0.7,10,1.4,15.1c0.2,1.3,0.4,2.5,0.6,4
		c0.2,1.3,0.5,2.5,0.7,3.8c0.6,2.7,1.2,5.4,2,8.2c1.7,5.6,3.7,11.5,7.8,18.2c2.1,3.3,4.9,6.8,8.9,10c4,3.2,9.6,5.9,15.3,6.6
		c1.4,0.2,2.8,0.3,4.2,0.3l1,0l0.5,0c2.6-0.1,0.8-0.1,1.5-0.1l0.9-0.2l2-0.4c0.9-0.2,1.8-0.4,2.7-0.7c1.4-0.5,2.4-0.9,3.6-1.4
		c4.3-2,7.3-4.3,9.9-6.6c5.1-4.6,8.8-9.3,12.1-14c6.6-9.5,11.6-19.3,16.3-29.3c4.7-10,8.7-20.2,12.6-30.6
		c6.5-17.9,11.9-36.2,16.6-54.9c5.4-2.6,10.3-5.2,14.8-7.9c1.3-0.8,2.6-1.6,3.8-2.4c-0.2,0.7-0.4,1.3-0.6,1.9
		c-2.6,8.3-5,16.7-7,25.3c-2,8.6-3.6,17.3-4.6,26.4c-0.5,4.5-0.9,9.2-0.9,14c0,4.9,0.2,9.9,1.2,15.5c0.3,1.5,0.5,2.8,1.1,4.4
		c0.5,1.5,0.9,3,1.7,4.7c1.3,3.1,3.7,6.7,7,9.6c3.4,2.9,7.8,4.7,11.7,5.3c1,0.2,1.9,0.3,2.8,0.3c0.9,0,1.8,0,2.7,0
		c1.7-0.1,3.2-0.4,4.8-0.6c1.5-0.3,2.8-0.7,4.2-1.1l0.5-0.1l0.3-0.1l0.9-0.3l0.1,0l0.7-0.3l1.4-0.6l1.4-0.6l0.7-0.3l1-0.5
		c1.3-0.7,2.6-1.5,3.9-2.2c0.6-0.4,1.3-0.8,1.9-1.1l1.5-1.1l3-2.2c1.9-1.5,3.6-3.1,5.4-4.7c6.7-6.5,12.2-13.4,17.3-20.6
		c0.4-0.6,0.8-1.1,1.2-1.7l0.3,0.5l0.5,0.9l0.7,1.2c0.5,0.8,1,1.5,1.5,2.3c1,1.5,2.3,2.9,3.6,4.2c1.1,1.2,3.2,2.7,5.1,3.8
		c1.8,1.1,4.3,2,6.6,2.6c2.2,0.4,4.7,0.6,6.7,0.5c1-0.1,2-0.2,2.9-0.4c1-0.2,1.9-0.4,2.6-0.6c3.3-1,5.7-2.3,7.8-3.6
		c1-0.7,1.9-1.3,2.9-2l2.4-2c2.9-2.7,5.4-5.4,7.5-8c4.3-5.3,7.7-10.6,11-15.8c3.3-5.2,6.2-10.5,9-15.9c2.8-5.2,5.4-10.4,8-15.8
		c0.7,2.4,1.6,4.9,2.7,7.4c0.5,1.1,1.2,2.3,1.8,3.4c0.7,1.1,1.2,2.2,2.2,3.4c0.9,1.2,1.8,2.3,2.7,3.4c1.1,1.1,2.3,2.2,3.6,3.2
		c1.1,1,2.8,1.9,4.2,2.8c1.5,0.9,3,1.6,4.7,2.1c1.7,0.6,3.3,1.1,4.9,1.3c1.6,0.2,3.4,0.5,4.8,0.4c6.4,0,11.2-2,15.4-4.1
		c8-4.4,13.4-9.9,18-15.6c4.6-5.7,8.4-11.6,11.9-17.6c3.6-6,6.6-12.3,9.7-18.6c3-6.4,5.7-12.7,8.2-19.6c1.6-4.6,3.2-9.3,4.8-13.9
		c0.2,2.2,0.3,4.4,0.7,6.8c0.3,2.3,0.8,5.6,1.4,8.2c1.1,5.5,2.4,11,4.5,16.5c2.1,5.5,4.5,11.2,9.3,16.7c2.3,2.7,5.4,5.5,9.5,7.4
		c2,1,4.3,1.6,6.5,2c2.2,0.2,4.6,0.4,6.7,0c4.4-0.5,7.8-2.1,11-3.7c1.5-0.9,2.9-1.8,4.3-2.7c1.3-1,2.5-2,3.7-2.9
		c4.6-4.1,8.5-8.3,12-12.7c7-8.8,12.8-17.9,18.2-27.1c1.1-1.9,2.2-3.8,3.2-5.7c1.8,5.8,4.6,12,9.4,17.8c1.4,1.7,2.8,3.3,4.6,4.8
		c0.9,0.8,1.7,1.5,2.6,2.2c1,0.7,2,1.3,2.9,1.9c1.9,1.3,4.1,2.2,6.2,3.1c2.1,0.8,4.3,1.3,6.4,1.8c8.5,1.5,15.8,0.2,22-1.2
		c1.6-0.3,3.1-0.8,4.6-1.2l2.3-0.6c2.2-0.7,1.1-0.4,1.9-0.6l0.9-0.3l1.8-0.7c0.6-0.2,1.6-0.7,2.4-1.1c1.7-0.8,3.4-1.7,4.7-2.5
		c6.7-4,12.2-8.9,16.9-14.2c-0.5,4.2-0.9,8.5-1.4,12.6c-1,7.6-2.1,15.1-3.1,22.6c-3.6,3-7.3,6.1-11,9.3c-2,1.8-4,3.5-6.1,5.3
		c-2,1.8-4.1,3.6-6.2,5.5c-4.3,3.8-8.6,7.6-13,11.5c-4.3,4.1-8.6,8.2-13,12.4c-4.5,4.1-8.8,8.7-13.2,13.2c-4.4,4.5-9,9.1-13.3,14
		c-4.4,4.8-8.9,9.7-13.4,14.7c-4.4,5.2-8.8,10.4-13.2,15.7c-2.3,2.6-4.4,5.4-6.5,8.2c-2.2,2.8-4.3,5.6-6.5,8.5
		c-4.5,5.5-8.6,11.7-12.9,17.8c-2.1,3.1-4.3,6.1-6.4,9.3c-1.9,3.1-3.8,6.3-5.8,9.4c-1.9,3.2-3.9,6.3-5.9,9.5l-0.4,0.6l-0.5,0.9
		l-0.7,1.3l-1.4,2.6c-0.9,1.7-1.9,3.4-2.8,5.2c-7.1,14.1-13.3,29.3-17,46.2c-1.8,8.4-2.9,17.3-2.5,26.6l0.2,3.5
		c0.1,1.2,0.3,2.4,0.4,3.6l0.5,3.6l0.8,3.7c1.1,4.9,3.1,10.1,6,15c3,5,7.5,9.7,13,13.2c5.6,3.5,12.1,5.1,18.3,5.7
		c12.3,0.6,22.8-2.9,32-7.1l3.5-1.6l3.3-1.8c2.1-1.2,4.4-2.4,6.3-3.8l6.1-4l5.7-4.3c2-1.4,3.8-3,5.6-4.5c1.8-1.5,3.7-3,5.5-4.6
		l5.4-5l2.7-2.5l2.3-2.4l4.6-4.7l1.2-1.2l1.5-1.6l2.4-2.8c1.6-1.8,3.3-3.7,4.8-5.6l4.5-5.8c6-7.8,11.3-16,16.2-24.4
		c9.8-16.9,17.6-34.8,24.3-53.1c1.6-4.6,3.3-9.2,4.8-13.8c1.4-4.7,2.9-9.3,4.3-14c1.5-4.7,2.6-9.4,3.9-14.2
		c1.3-4.7,2.6-9.5,3.6-14.3c1.1-4.8,2.2-9.6,3.3-14.4c1-4.8,1.9-9.7,2.8-14.5c2-9.7,3.4-19.5,5-29.3c0.8-4.9,1.5-9.8,2.1-14.8
		c0.6-4.9,1.3-9.9,1.9-14.9c0.5-3.9,0.8-7.9,1.2-11.9c0.2-0.1,0.3-0.2,0.5-0.4c3.8-2.9,7.4-6,11-8.9c3.4-3.2,6.9-6,10.1-9.2
		c1.6-1.6,3.1-3.2,4.6-4.7c0.8-0.8,1.5-1.6,2.3-2.3l0.6-0.6l0.7-0.9l1-1.1c1.2-1.3,2.7-3.3,4.1-5.1c1.4-1.8,2.5-3.4,3.7-5.1
		c4.6-6.7,8.1-13.2,11.1-19.4c2.9-6.2,5.4-12.1,7.1-17.7C953.7,303.2,954.8,293.1,954.4,285.7z M356.7,377.4c0.1-0.1,0.2,0,0.3,0
		c0,0.1,0-0.1,0-0.2l0-0.4l0-0.9l0-0.2c-0.1-0.6,0.1,0.6,0.1,0.4l0-0.3l0.1-0.6l0.2-1.2c0.5-3.3,1.4-6.7,2.3-10.1
		c2-7,4.5-14.3,7.5-21.6c3-7.2,7-14.3,11.4-19.7c2.2-2.6,4.4-4.8,6.1-6c1.8-1.2,2.4-1.7,3.4-2c0.5-0.2,1.2-0.2,2.2,0.2l0.4,0.1
		c0.1,0,0.1,0,0.2,0c0.1,0,0.1-0.1,0.3,0.1l0.8,0.5l0.4,0.3c0,0,0.3,0.2,0.1,0l0,0h0.2c0.1,0,0.3,0.1,0.4,0.1
		c1.3,0.6,3.5,3.5,4.9,7.3c3,7.7,4.5,17.8,4.8,27.9c0.3,10-0.6,20.4-2.1,30.6c-4.1,1.4-8.3,2.6-12.8,3.5c-6.6,1.3-13.8,2.1-20.3,1
		c-3.2-0.5-6.3-1.6-8.4-3c-2.1-1.5-2.9-3.1-2.8-4.2C356.4,378.7,356.6,378.1,356.7,377.4z M382,442.3c-4.4,9.4-9.5,18.3-15,26.6
		c-8.8,13.1-18.4,28.1-26.7,29.3c-2,0.3-3.2-2.3-3.9-10.3c-1.4-16.9,14.5-44.4,14.5-44.4c1.4-3.3,2.9-6.8,4.1-11.1
		c0.6-2.2,1.2-4.6,1.6-7.9c0.2-1.7,0.3-3.5,0.1-6c-0.2-2.5-0.5-5.8-2.9-10.5c0,0,0,0,0,0c1.8,0.3,3.6,0.6,5.3,0.7
		c2.7,0.2,5.2,0.2,7.7,0.1c9.8-0.5,18.2-2.3,25.9-4.6c1.2-0.4,2.4-0.7,3.5-1.1C392.6,416.6,387.8,429.8,382,442.3z M749.6,40.2
		c0.1,0.4,0.3,1.1,0.4,2c0,0,0-0.1,0-0.1c-0.5-1.1-0.5-1.7-0.5-1.8C749.5,39.9,749.5,40.2,749.6,40.2z M796.6,196.4
		C796.6,196.4,796.6,196.4,796.6,196.4c0.1,0.2,0.1,0.6,0.1,1.1c0-0.1,0-0.2,0-0.3C796.5,196.6,796.6,196.7,796.6,196.4z
		 M896.8,181.7C896.8,181.7,896.8,181.6,896.8,181.7c-0.1-0.3-0.1-0.4-0.1-0.4C896.8,181.3,896.8,181.5,896.8,181.7z M844.5,452.8
		c-1,4.6-1.9,9.2-3,13.7c-1.1,4.5-2.2,9-3.3,13.5c-8.9,35.8-20.6,69.9-36.4,99.7c-4,7.4-8.2,14.6-12.7,21.3l-3.4,5l-3.6,4.8
		l-1.8,2.4l-0.5,0.6c-0.4,0.5,0,0.1-0.2,0.3l-1.1,1.3l-4.3,5.1l-2.1,2.5l-2,2.2l-3.9,4.4c-1.3,1.4-2.8,2.8-4.2,4.3
		c-1.4,1.4-2.8,2.9-4.2,4.1c-5.7,5.5-11.7,10-17.6,13.7c-5.9,3.7-11.9,5.9-16.5,6.3c-2.2,0-4.1-0.1-5.7-0.8
		c-1.6-0.8-3.3-1.8-4.8-3.8c-3.1-3.8-5.3-10.2-6.2-16.9c-0.9-6.8-0.7-14,0.2-21.2c1.7-14.5,6.3-28.7,12.2-42
		c0.7-1.7,1.6-3.3,2.3-4.9l1.2-2.4l0.6-1.2c0-0.1,0.4-0.7,0.1-0.3l0.3-0.6c1.9-3.3,3.7-6.5,5.5-9.7c1.8-3.2,3.7-6.4,5.5-9.6
		c1.9-3,3.9-5.9,5.9-8.8c7.5-11.7,16.3-22.6,24.7-33c4.4-5.1,8.7-10.1,13-15.1c4.4-4.8,8.9-9.4,13.3-14.1
		c17.8-18.1,35.4-34.1,52.8-47.4c2-1.6,4-3.1,5.9-4.6c-0.2,1.2-0.4,2.3-0.6,3.5C848.2,434.3,846.6,443.6,844.5,452.8z"/>
	<path fill="#FFFFFF" d="M388.5,687.2l-0.3,0.1c-12,4.7-24.1,8.7-35.6,11c-11.6,2.5-22.4,2.6-31.1,0.7c-4.2-1.2-7.9-2.8-11.3-5
		c-3.4-2.1-6.4-5.2-9.2-8.9c-2.8-3.7-5.4-8.1-7.5-13.2c-2.2-5-4.2-10.4-5.7-16.3c-1.6-5.7-2.8-11.9-3.9-18.1
		c-0.9-6.3-1.8-12.6-2.5-19.1c-1.3-12.9-2-26.4-2.2-39.6l-0.3-20.9c-0.2-7.1-0.4-14.2-0.9-21.4c-0.9-14.4-2.2-28.8-5.4-44.1
		c-1.7-7.7-3.8-15.6-8-24.2c-2.3-4.3-5-8.8-9.5-13c-4.2-4-9.9-7.2-15.7-8.5c2.1-3.2,4.2-6.3,6.3-9.5c3.9-5.9,7.7-12,11.5-18
		c3.7-6.1,7.4-12.2,10.9-18.4l5.3-9.3l5.1-9.5c1.7-3.2,3.3-6.4,4.9-9.7l2.4-4.9l2.4-5.1c1.5-3.4,3.2-7,4.5-10.1l2-4.8l1-2.4l1.2-3
		c2.7-7.3,5.1-14.7,6.9-22.2c1.9-7.5,3.3-15.1,4.4-22.8c1.1-7.7,1.6-15.5,1.6-23.4c-0.1-4-0.3-8-0.6-12c-0.4-4-1-8.1-1.7-12.1
		c-1.7-8.2-4-16.4-8.1-24.8c-2.1-4.1-4.6-8.3-7.8-12.4c-3.3-4-7.2-7.9-12.2-11.1c-5-3.1-10.9-5.3-16.7-6c-5.8-0.7-11.3,0-16.1,1.4
		c-9.6,2.7-16.7,7.5-23,12.4c-6.3,4.9-11.7,10.2-16.8,15.5c-5.1,5.4-9.9,10.8-14.5,16.4c-2.3,2.7-4.6,5.6-6.8,8.4
		c-1.2,1.4-2.1,2.8-3.2,4.2l-1.6,2.1l-1.3,1.8l0.5-3.1l4-28.4v0l0-4.6c-0.1-8.1-5-15.8-13-19c-10.6-4.3-22.8,0.8-27.1,11.4l-2.8,6.8
		c-1,2.3-1.7,4.6-2.9,6.9l-3.3,7c-1.1,2.4-2.2,4.7-3.4,7.1l-7.3,14.3l-7.6,14.4c-2.7,5.1-1.7,11.6,2.7,15.6c4,3.7,9.8,4.4,14.5,2.1
		l-2.3,14.9l-4.9,27.1l-5.4,27.1l-5.8,27.1l-4.8,21.5c-0.6,2.1-1.2,4.3-1.8,6.4c-7.6,27.2-13.6,54.7-18.6,82.3
		c-2.2,12.4-4.2,24.9-6.1,37.3L81,548.8l-4.3,28l-3.4,28.1l-2.4,28.3l-1.3,28.4l0,0.2c-0.3,5.7,4.1,10.5,9.7,10.8
		c5.7,0.3,10.5-4.1,10.8-9.7v0c0-0.1,0-0.2,0-0.2l2.6-27.3l3.7-27.3l4.7-27.1l5.5-27l6.2-26.9l6.7-26.9l7.1-26.9l7.3-26.9l14.8-54
		l7.2-27.2l6.9-27.4l6.4-27.6l2.6-12.5c1-1.6,2-3.2,3-4.8l2.7-4.3c0.9-1.4,1.9-2.8,2.9-4.2c2-2.8,3.9-5.6,5.9-8.3l6.3-7.9l1.5-1.9
		l1.7-2c1.1-1.3,2.3-2.7,3.4-3.9c2.2-2.5,4.5-5,6.8-7.4c4.7-4.8,9.6-9.4,14.7-13.5c5.1-4.1,10.5-7.7,16-10.3
		c5.4-2.6,11-4.2,15.2-4.1c2.1,0.1,3.7,0.6,4.7,1.3c1,0.7,1.6,1.5,2.2,2.5c1.3,2,2.7,5.7,3.7,10.3c2.1,9.4,2.3,21.4,1.8,33.3
		c-0.3,6-0.8,12.1-1.6,18.2c-0.8,6.1-1.9,12.2-3.3,18.3c-1.4,6-3,12-4.9,17.9l-0.6,1.9l-0.9,2.5l-1.7,4.9c-1.1,3.4-2.3,6.2-3.5,9.3
		l-1.7,4.5l-1.9,4.7l-3.8,9.4l-7.9,18.8c-5.4,12.5-11.1,25-17,37.3c-5.9,12.4-12.1,24.6-18.7,36.6c-0.1,0.1-0.2,0.3-0.2,0.4
		c-2.2,1.3-4.5,2.5-6.6,3.8c-6.3,3.7-12.5,7.9-18.1,11.8c-6.8,4.8-13.4,10.3-18.4,18.7c-1.2,2.2-2.3,4.5-3,7.3
		c-0.7,2.8-1.1,6-0.4,9.9c0.4,2,1.1,4,2.5,6.1c1.3,2.1,3.3,4,5.5,5.3c2.2,1.3,4.7,2,6.8,2.2c0.5,0.1,1.1,0.1,1.6,0.1l1.5,0
		c1,0,1.9-0.1,2.7-0.3c3.4-0.6,6.1-1.7,8.4-2.9c1.2-0.6,2.2-1.2,3.3-1.9l1.6-1.1l1.4-1l1-0.8l0.5-0.4l0.8-0.8l2.3-2.1l2.3-2.2
		c0.7-0.7,1.3-1.4,2-2.1c9.5-10.4,17.6-20.8,25.4-31.5c2.5-0.6,4.8-0.8,6.8-0.9c2.2,0.1,4,0.4,4.8,0.9c0.8,0.6,0.9,1,1.4,1.8
		c0.5,0.7,1.1,2.5,1.7,4.5c1.2,4.3,2,10.1,2.3,16.2c0.7,12.3,0.2,25.8-0.3,39.3l-0.9,20.5l-0.5,10.3c-0.2,3.7-0.2,7-0.4,10.6
		c-0.4,14.6-0.3,29.1,0.7,43.9c0.9,14.8,2.9,29.9,6.8,45.3c3.9,15.3,9.7,31.4,21,46.2c5.6,7.4,12.5,14.4,20.9,19.8
		c8.3,5.4,17.7,9.2,27,11.3c4.6,0.8,9.3,1.7,13.8,1.9c4.6,0.4,8.9,0.2,13.3,0.1c2.2,0,4.3-0.4,6.4-0.6c2.1-0.3,4.2-0.5,6.3-0.8
		c4-0.8,8.2-1.5,12-2.5c15.6-4,29.8-9.9,43.2-16.6c9.7-4.9,14.4-16.5,10.3-26.9C411.9,688.3,399.5,682.9,388.5,687.2z M170.9,503.2
		C170.9,503.2,170.9,503.1,170.9,503.2c0.1,0.2,0.1,0.4,0.1,0.5C171.1,504.2,170.9,503.8,170.9,503.2z"/>
</g>
</svg>
